<svg width="338" height="64" viewBox="0 0 338 64" fill="none" xmlns="http://www.w3.org/2000/svg">
<path d="M2.28989 43.7239C1.87399 43.7236 1.4949 43.4855 1.314 43.111C1.13311 42.7365 1.18226 42.2916 1.44053 41.9656C2.25235 40.9593 2.93963 39.8586 3.48745 38.6875C2.53015 38.587 1.63156 38.1777 0.927449 37.5214C0.22926 36.8024 -0.100581 35.8028 0.0325333 34.8095C0.183799 33.9372 0.675455 33.1606 1.39931 32.6508C2.72685 31.698 4.53919 31.8001 5.75131 32.896C6.56834 33.7739 6.92476 34.985 6.71348 36.1654C6.68853 36.3379 6.65599 36.506 6.61694 36.6709C7.31877 36.6471 8.04555 36.5982 8.79619 36.5494C9.82019 36.4822 10.8767 36.4117 11.9257 36.4052H11.9322C12.5313 36.4031 13.0186 36.887 13.0207 37.4861C13.0228 38.0852 12.5389 38.5726 11.9398 38.5747C10.9559 38.5747 9.92975 38.6484 8.9383 38.7135C7.89369 38.7829 6.82087 38.8534 5.78169 38.8534L5.6808 39.0867C5.03418 40.6053 4.18112 42.0274 3.14575 43.3128C2.93878 43.5741 2.62319 43.7257 2.28989 43.7239V43.7239ZM3.4625 34.1695C3.17871 34.1674 2.90113 34.2526 2.66738 34.4136C2.4169 34.5798 2.24163 34.8376 2.17925 35.1317C2.14575 35.4621 2.2629 35.79 2.49816 36.0244C3.03999 36.4231 3.69782 36.6327 4.37043 36.621C4.45946 36.3747 4.52484 36.1204 4.56569 35.8617C4.67211 35.3648 4.5481 34.8465 4.22833 34.4515C4.0195 34.2614 3.74476 34.1602 3.4625 34.1695V34.1695Z" fill="#DF4D60"/>
<path d="M62.0691 30.6983L58.2074 30.2753C57.0192 27.7337 55.3034 25.4744 53.1742 23.6475L53.0354 23.5856C53.3766 23.3009 53.6501 22.9437 53.8359 22.5399C54.1551 21.8156 54.3653 21.0479 54.4596 20.262C54.6144 18.7532 54.5882 17.2314 54.3815 15.7288C54.4137 14.5159 53.9982 13.3335 53.2143 12.4073C51.7423 11.1154 49.3201 12.89 48.1551 13.8587C46.7782 14.9832 45.7049 16.4346 45.0332 18.0805C44.8604 18.5258 44.7283 18.9858 44.6384 19.4549C44.6182 19.5824 44.6066 19.711 44.6036 19.84L44.583 19.8292C43.2771 19.3591 41.944 18.9679 40.5912 18.6576L21.6732 20.0244C16.0759 22.5953 11.3681 27.5309 10.099 33.6488C8.51525 41.2854 12.9085 48.3254 19.2108 52.339C19.4169 52.4692 19.623 52.5993 19.84 52.7295L20.5342 62.4488C20.5797 63.0154 21.0506 63.4533 21.619 63.4576H28.2793C28.8477 63.4533 29.3185 63.0154 29.3641 62.4488L29.7871 56.4068C33.0304 57.1299 36.3933 57.1299 39.6366 56.4068L40.0596 62.4488C40.1052 63.0154 40.576 63.4533 41.1444 63.4576H47.8047C48.3731 63.4533 48.8439 63.0154 48.8895 62.4488L49.5837 52.7295C51.608 51.5322 53.4401 50.0365 55.0183 48.2929H55.0291C55.5357 47.7374 56.0067 47.1505 56.4393 46.5356C57.1335 45.5841 57.7261 44.5624 58.2074 43.4875L62.0691 43.0644C63.1691 42.9427 64.0012 42.0125 64 40.9058V32.857C64.0012 31.7502 63.1691 30.82 62.0691 30.6983V30.6983Z" fill="#FB7B76"/>
<path d="M48.8135 35.2542C46.4172 35.2542 44.4746 33.3116 44.4746 30.9153C44.4746 30.3162 44.9602 29.8305 45.5593 29.8305C46.1584 29.8305 46.6441 30.3162 46.6441 30.9153C46.6441 32.1134 47.6154 33.0847 48.8135 33.0847C50.0117 33.0847 50.983 32.1134 50.983 30.9153C50.983 30.3162 51.4687 29.8305 52.0678 29.8305C52.6669 29.8305 53.1525 30.3162 53.1525 30.9153C53.1525 33.3116 51.2099 35.2542 48.8135 35.2542Z" fill="#3F5C6C"/>
<path d="M25.9078 24.1823C21.163 22.4824 17.998 17.9845 18 12.9443C17.9958 11.0585 18.4421 9.19901 19.3017 7.52056C21.735 2.74382 27.0539 0.174688 32.3082 1.23819C37.5624 2.30169 41.4635 6.73703 41.8477 12.0841C42.2319 17.4311 39.0049 22.3785 33.9566 24.1823H25.9078Z" fill="#F0C419"/>
<path d="M31.7109 9.59375L31.9062 8.72656H33.9688L32.7812 14.3281C32.7083 14.6823 32.6719 14.9167 32.6719 15.0312C32.6719 15.151 32.7005 15.2448 32.7578 15.3125C32.8203 15.3802 32.8932 15.4141 32.9766 15.4141C33.2578 15.4141 33.6198 15.2318 34.0625 14.8672C34.5104 14.4974 34.8984 13.9974 35.2266 13.3672C35.5599 12.7318 35.7266 12.0391 35.7266 11.2891C35.7266 10.6641 35.6068 10.0755 35.3672 9.52344C35.1328 8.97135 34.7917 8.49219 34.3438 8.08594C33.8958 7.67969 33.3411 7.36198 32.6797 7.13281C32.0234 6.90365 31.2786 6.78906 30.4453 6.78906C29.5964 6.78906 28.8177 6.90104 28.1094 7.125C27.401 7.34375 26.7786 7.66146 26.2422 8.07812C25.7057 8.48958 25.2578 9 24.8984 9.60938C24.5807 10.1406 24.3385 10.7292 24.1719 11.375C24.0052 12.0208 23.9219 12.6797 23.9219 13.3516C23.9219 14.2474 24.099 15.0677 24.4531 15.8125C24.8125 16.5521 25.3307 17.1719 26.0078 17.6719C26.6901 18.1771 27.513 18.5339 28.4766 18.7422C29.4401 18.9557 30.5286 19 31.7422 18.875C32.7057 18.7604 33.5208 18.5417 34.1875 18.2188C34.8594 17.8958 35.4271 17.4427 35.8906 16.8594H37.5547C37.2839 17.4167 36.9297 17.9141 36.4922 18.3516C36.0599 18.7891 35.5521 19.1562 34.9688 19.4531C34.3854 19.7552 33.7318 19.9844 33.0078 20.1406C32.2839 20.2969 31.4948 20.375 30.6406 20.375C29.3594 20.375 28.2057 20.2057 27.1797 19.8672C26.1536 19.5339 25.2891 19.0495 24.5859 18.4141C23.888 17.7839 23.3594 17.0312 23 16.1562C22.6406 15.276 22.4609 14.3047 22.4609 13.2422C22.4609 12.1328 22.6458 11.0964 23.0156 10.1328C23.3854 9.16927 23.9167 8.33333 24.6094 7.625C25.3073 6.91146 26.1562 6.35417 27.1562 5.95312C28.1615 5.55208 29.2682 5.35156 30.4766 5.35156C31.4661 5.35156 32.3724 5.4974 33.1953 5.78906C34.0234 6.07552 34.7318 6.48958 35.3203 7.03125C35.9089 7.57292 36.3568 8.21615 36.6641 8.96094C36.9766 9.70052 37.1328 10.5182 37.1328 11.4141C37.1328 12.112 37.0078 12.7969 36.7578 13.4688C36.5078 14.1354 36.1484 14.737 35.6797 15.2734C35.2161 15.8047 34.6693 16.2266 34.0391 16.5391C33.4089 16.8464 32.7292 17 32 17C31.5781 17 31.25 16.9297 31.0156 16.7891C30.7812 16.6432 30.625 16.4141 30.5469 16.1016C30.0938 16.5495 29.5729 16.8333 28.9844 16.9531C28.3958 17.0677 27.8255 17.013 27.2734 16.7891C26.7214 16.5599 26.2734 16.1771 25.9297 15.6406C25.5911 15.1042 25.4219 14.4427 25.4219 13.6562C25.4219 12.8385 25.5964 12.0339 25.9453 11.2422C26.2995 10.4505 26.7995 9.80208 27.4453 9.29688C28.0964 8.79167 28.8307 8.53906 29.6484 8.53906C30.5859 8.53906 31.2734 8.89062 31.7109 9.59375ZM27.4375 13.6406C27.4375 14.2656 27.5677 14.7448 27.8281 15.0781C28.0885 15.4115 28.4297 15.5781 28.8516 15.5781C29.3411 15.5781 29.7708 15.3828 30.1406 14.9922C30.5156 14.6016 30.7995 14.1094 30.9922 13.5156C31.1849 12.9167 31.2812 12.3385 31.2812 11.7812C31.2812 11.5052 31.2474 11.2578 31.1797 11.0391C31.1172 10.8151 31.0208 10.6198 30.8906 10.4531C30.7656 10.2865 30.612 10.1615 30.4297 10.0781C30.2526 9.98958 30.0495 9.94531 29.8203 9.94531C29.362 9.94531 28.9479 10.125 28.5781 10.4844C28.2135 10.8385 27.9323 11.3021 27.7344 11.875C27.5365 12.4427 27.4375 13.0312 27.4375 13.6406Z" fill="#F29C1F"/>
<path d="M53.1526 42.8474V42.8366C53.1506 42.4491 52.9421 42.092 52.6055 41.8999C52.2689 41.7078 51.8554 41.7099 51.5207 41.9053C51.1861 42.1008 50.9811 42.4599 50.9831 42.8474C51.1897 45.2798 52.7514 47.3872 55.0183 48.2929H55.0292C55.5357 47.7374 56.0067 47.1504 56.4393 46.5356C53.3153 45.3749 53.1526 43.0427 53.1526 42.8474V42.8474Z" fill="#DF4D60"/>
<path d="M39.0509 26.5763C38.828 26.576 38.6105 26.507 38.4282 26.3788C35.9871 24.9643 33.1914 24.2799 30.3729 24.4068C27.5548 24.2801 24.7594 24.9645 22.3186 26.3788C21.8287 26.7118 21.1622 26.5901 20.8215 26.1054C20.4809 25.6208 20.592 24.9525 21.0712 24.6042C23.1778 23.1213 26.6555 22.2373 30.3729 22.2373C34.0903 22.2373 37.568 23.1213 39.6746 24.6042C40.0615 24.8763 40.2275 25.3677 40.0849 25.8186C39.9422 26.2696 39.5238 26.5762 39.0509 26.5763V26.5763Z" fill="#DF4D60"/>
<path d="M101.417 23.1406C104.931 23.1406 107.672 23.8242 109.641 25.1914C111.609 26.5586 112.594 28.6025 112.594 31.3232C112.594 32.7041 112.225 33.9414 111.486 35.0352C110.762 36.1152 109.702 36.9287 108.308 37.4756C110.099 37.8584 111.438 38.6787 112.327 39.9365C113.229 41.1943 113.681 42.6504 113.681 44.3047C113.681 47.1621 112.737 49.3291 110.851 50.8057C108.964 52.2686 106.291 53 102.832 53H88.1484V49.4111L91.3271 48.7959V27.3652L88.1484 26.75V23.1406H91.3271H101.417ZM97.3154 39.793V48.4062H102.832C104.418 48.4062 105.628 48.0645 106.462 47.3809C107.296 46.6836 107.713 45.6582 107.713 44.3047C107.713 42.8418 107.357 41.7275 106.646 40.9619C105.936 40.1826 104.814 39.793 103.283 39.793H97.3154ZM97.3154 35.6504H101.622C103.222 35.6504 104.452 35.3223 105.313 34.666C106.175 34.0098 106.605 33.0527 106.605 31.7949C106.605 30.4141 106.168 29.3955 105.293 28.7393C104.432 28.083 103.14 27.7549 101.417 27.7549H97.3154V35.6504ZM131.584 50.1904C130.873 51.2295 129.991 52.0293 128.938 52.5898C127.899 53.1504 126.71 53.4307 125.37 53.4307C123.032 53.4307 121.2 52.6855 119.874 51.1953C118.548 49.6914 117.885 47.3604 117.885 44.2021V35.0352L115.444 34.4199V30.8105H117.885H123.873V44.2432C123.873 45.8564 124.14 47.0186 124.673 47.7295C125.22 48.4268 126.026 48.7754 127.093 48.7754C128.036 48.7754 128.85 48.625 129.533 48.3242C130.23 48.0098 130.798 47.5654 131.235 46.9912V35.0352L128.61 34.4199V30.8105H131.235H137.224V48.7959L139.91 49.4111V53H131.974L131.584 50.1904ZM156.706 50.293C156.009 51.3184 155.182 52.0977 154.225 52.6309C153.281 53.1641 152.201 53.4307 150.984 53.4307C148.25 53.4307 146.124 52.4326 144.606 50.4365C143.103 48.4404 142.351 45.8018 142.351 42.5205V42.0898C142.351 38.5898 143.109 35.7666 144.627 33.6201C146.145 31.4736 148.277 30.4004 151.025 30.4004C152.133 30.4004 153.131 30.6465 154.02 31.1387C154.908 31.6172 155.688 32.3008 156.357 33.1895V25.2324L153.158 24.6172V21.0078H156.357H162.346V48.7959L165.217 49.4111V53H157.157L156.706 50.293ZM148.339 42.5205C148.339 44.4619 148.66 45.9932 149.303 47.1143C149.959 48.2217 151.025 48.7754 152.502 48.7754C153.377 48.7754 154.136 48.5977 154.778 48.2422C155.421 47.8867 155.947 47.374 156.357 46.7041V37.291C155.947 36.5801 155.421 36.0332 154.778 35.6504C154.149 35.2539 153.404 35.0557 152.543 35.0557C151.08 35.0557 150.014 35.7051 149.344 37.0039C148.674 38.3027 148.339 39.998 148.339 42.0898V42.5205ZM167.493 42.0898C167.493 38.5898 168.252 35.7666 169.77 33.6201C171.301 31.4736 173.44 30.4004 176.188 30.4004C177.433 30.4004 178.526 30.6807 179.47 31.2412C180.413 31.7881 181.22 32.5742 181.89 33.5996L182.32 30.8105H187.529V52.3438C187.529 55.2695 186.606 57.6006 184.761 59.3369C182.929 61.0869 180.406 61.9619 177.193 61.9619C176.072 61.9619 174.883 61.8047 173.625 61.4902C172.367 61.1895 171.205 60.7725 170.139 60.2393L171.246 56.0352C172.203 56.4453 173.16 56.7666 174.117 56.999C175.074 57.2451 176.086 57.3682 177.152 57.3682C178.615 57.3682 179.709 56.9238 180.434 56.0352C181.158 55.1465 181.521 53.9092 181.521 52.3232V50.8672C180.864 51.7012 180.092 52.3369 179.203 52.7744C178.314 53.2119 177.296 53.4307 176.147 53.4307C173.427 53.4307 171.301 52.4326 169.77 50.4365C168.252 48.4268 167.493 45.7881 167.493 42.5205V42.0898ZM173.481 42.5205C173.481 44.4619 173.81 45.9932 174.466 47.1143C175.122 48.2217 176.188 48.7754 177.665 48.7754C178.581 48.7754 179.354 48.6113 179.982 48.2832C180.625 47.9414 181.138 47.4492 181.521 46.8066V37.168C181.138 36.498 180.625 35.9785 179.982 35.6094C179.354 35.2402 178.595 35.0557 177.706 35.0557C176.243 35.0557 175.17 35.7051 174.486 37.0039C173.816 38.3027 173.481 39.998 173.481 42.0898V42.5205ZM201.741 53.4307C198.542 53.4307 195.985 52.4053 194.071 50.3545C192.157 48.3037 191.2 45.6992 191.2 42.541V41.7207C191.2 38.4258 192.103 35.7119 193.907 33.5791C195.726 31.4463 198.159 30.3867 201.208 30.4004C204.202 30.4004 206.526 31.3027 208.181 33.1074C209.835 34.9121 210.662 37.3525 210.662 40.4287V43.6895H197.414L197.373 43.8125C197.482 45.2754 197.968 46.4785 198.829 47.4219C199.704 48.3652 200.887 48.8369 202.377 48.8369C203.703 48.8369 204.804 48.707 205.679 48.4473C206.554 48.1738 207.511 47.75 208.55 47.1758L210.17 50.8672C209.254 51.5918 208.064 52.2002 206.602 52.6924C205.152 53.1846 203.532 53.4307 201.741 53.4307ZM201.208 35.0146C200.101 35.0146 199.226 35.4385 198.583 36.2861C197.94 37.1338 197.544 38.248 197.394 39.6289L197.455 39.7314H204.797V39.1982C204.797 37.9268 204.496 36.915 203.895 36.1631C203.307 35.3975 202.411 35.0146 201.208 35.0146ZM222.352 25.376V30.8105H226.248V35.0146H222.352V46.3145C222.352 47.1758 222.529 47.791 222.885 48.1602C223.24 48.5293 223.719 48.7139 224.32 48.7139C224.73 48.7139 225.086 48.7002 225.387 48.6729C225.701 48.6318 226.05 48.5703 226.433 48.4883L226.945 52.8154C226.275 53.0205 225.612 53.1709 224.956 53.2666C224.3 53.376 223.589 53.4307 222.823 53.4307C220.759 53.4307 219.166 52.8633 218.045 51.7285C216.938 50.5938 216.384 48.7959 216.384 46.335V35.0146H213.123V30.8105H216.384V25.376H222.352ZM268.146 30.9131L268.022 30.8926L260.024 53H256.005L248.048 30.9746L247.925 30.9951L248.499 44.0996V48.7959L251.698 49.4111V53H239.332V49.4111L242.511 48.7959V27.3652L239.332 26.75V23.1406H242.511H250.324L257.933 45.1455H258.056L265.726 23.1406H276.759V26.75L273.56 27.3652V48.7959L276.759 49.4111V53H264.393V49.4111L267.571 48.7959V44.0996L268.146 30.9131ZM293.186 53C293.021 52.6309 292.878 52.2549 292.755 51.8721C292.632 51.4756 292.536 51.0791 292.468 50.6826C291.757 51.5029 290.889 52.166 289.863 52.6719C288.852 53.1777 287.689 53.4307 286.377 53.4307C284.203 53.4307 282.474 52.8428 281.188 51.667C279.917 50.4775 279.281 48.8643 279.281 46.8271C279.281 44.749 280.115 43.1426 281.783 42.0078C283.451 40.873 285.898 40.3057 289.125 40.3057H292.181V38.1318C292.181 37.0654 291.873 36.2383 291.258 35.6504C290.643 35.0625 289.733 34.7686 288.53 34.7686C287.847 34.7686 287.238 34.8506 286.705 35.0146C286.172 35.165 285.741 35.3496 285.413 35.5684L285.023 37.9473H280.512L280.532 33.0254C281.626 32.2871 282.877 31.665 284.285 31.1592C285.707 30.6533 287.252 30.4004 288.92 30.4004C291.668 30.4004 293.896 31.0771 295.605 32.4307C297.328 33.7705 298.189 35.6846 298.189 38.1729V47.3398C298.189 47.6816 298.189 48.0029 298.189 48.3037C298.203 48.6045 298.23 48.8916 298.271 49.165L300.097 49.4111V53H293.186ZM287.997 49.001C288.899 49.001 289.72 48.8096 290.458 48.4268C291.196 48.0303 291.771 47.5381 292.181 46.9502V43.5664H289.125C287.854 43.5664 286.89 43.8672 286.233 44.4688C285.577 45.0566 285.249 45.7676 285.249 46.6016C285.249 47.3535 285.488 47.9414 285.967 48.3652C286.459 48.7891 287.136 49.001 287.997 49.001ZM309.346 25.376V30.8105H313.242V35.0146H309.346V46.3145C309.346 47.1758 309.523 47.791 309.879 48.1602C310.234 48.5293 310.713 48.7139 311.314 48.7139C311.725 48.7139 312.08 48.7002 312.381 48.6729C312.695 48.6318 313.044 48.5703 313.427 48.4883L313.939 52.8154C313.27 53.0205 312.606 53.1709 311.95 53.2666C311.294 53.376 310.583 53.4307 309.817 53.4307C307.753 53.4307 306.16 52.8633 305.039 51.7285C303.932 50.5938 303.378 48.7959 303.378 46.335V35.0146H300.117V30.8105H303.378V25.376H309.346ZM326.798 53.4307C323.599 53.4307 321.042 52.4053 319.128 50.3545C317.214 48.3037 316.257 45.6992 316.257 42.541V41.7207C316.257 38.4258 317.159 35.7119 318.964 33.5791C320.782 31.4463 323.216 30.3867 326.265 30.4004C329.259 30.4004 331.583 31.3027 333.237 33.1074C334.892 34.9121 335.719 37.3525 335.719 40.4287V43.6895H322.471L322.43 43.8125C322.539 45.2754 323.024 46.4785 323.886 47.4219C324.761 48.3652 325.943 48.8369 327.434 48.8369C328.76 48.8369 329.86 48.707 330.735 48.4473C331.61 48.1738 332.567 47.75 333.606 47.1758L335.227 50.8672C334.311 51.5918 333.121 52.2002 331.658 52.6924C330.209 53.1846 328.589 53.4307 326.798 53.4307ZM326.265 35.0146C325.157 35.0146 324.282 35.4385 323.64 36.2861C322.997 37.1338 322.601 38.248 322.45 39.6289L322.512 39.7314H329.854V39.1982C329.854 37.9268 329.553 36.915 328.951 36.1631C328.363 35.3975 327.468 35.0146 326.265 35.0146Z" fill="#00A676"/>
</svg>
